<svg xmlns="http://www.w3.org/2000/svg" viewBox="0 0 371.23 291.95"><defs><style>.\39 ed3a612-e70e-4cf2-a713-a248f3c46a1e{opacity:0.8;}.\35 71c1408-8467-4a8d-9d62-33acdfccb163,.\38 2da17b1-ada6-4b5c-b853-9b908d81549c{opacity:0.7;}.df983ebf-63aa-40c7-863a-a2dfae0f8b37{fill:#3d3d3d;}.\39 55b2f02-365c-4096-8909-ce0ea0fb23ef{fill:none;}.\38 2da17b1-ada6-4b5c-b853-9b908d81549c,.\39 55b2f02-365c-4096-8909-ce0ea0fb23ef,.a7283175-d754-4e25-8a85-ccd6e4b1dbc1,.b0b8b921-321d-4147-911c-3a76a18118d8{stroke:#fff;stroke-miterlimit:10;stroke-width:6px;}.b0b8b921-321d-4147-911c-3a76a18118d8{fill:#191919;}</style></defs><title>logoRecurso 14</title><g id="8eb4baa4-3972-4775-be7a-5d0f89012852" data-name="Capa 2"><g id="14711aa5-3467-4beb-845c-a833d50bbb46" data-name="Capa 13" class="9ed3a612-e70e-4cf2-a713-a248f3c46a1e"><polygon points="364.1 287.14 285.1 287.26 285.1 3.14 364.1 3.01 364.1 287.14"/><polygon points="364.1 287.14 285.1 287.26 285.1 3.14 364.1 3.01 364.1 287.14"/><polygon points="364.1 287.14 285.1 287.26 285.1 3.14 364.1 3.01 364.1 287.14"/><polygon points="86.1 288.14 7.1 288.26 7.1 3.14 86.1 3.77 86.1 288.14"/><polygon points="364.09 288.82 285.09 288.94 7.1 3.14 85.7 3.14 364.09 288.82"/><polygon points="85.74 288.5 7.1 288.26 285.1 3.14 364.1 3.01 85.74 288.5"/><g class="571c1408-8467-4a8d-9d62-33acdfccb163"><polygon class="df983ebf-63aa-40c7-863a-a2dfae0f8b37" points="364.1 287.14 285.1 287.26 285.1 3.14 364.1 3.01 364.1 287.14"/><polygon class="955b2f02-365c-4096-8909-ce0ea0fb23ef" points="364.1 287.14 285.1 287.26 285.1 3.14 364.1 3.01 364.1 287.14"/></g><polygon class="82da17b1-ada6-4b5c-b853-9b908d81549c" points="86.1 288.14 7.1 288.26 7.1 3.14 86.1 3.77 86.1 288.14"/><polygon class="b0b8b921-321d-4147-911c-3a76a18118d8" points="364.09 288.82 285.09 288.94 7.1 3.14 85.7 3.14 364.09 288.82"/><polygon class="a7283175-d754-4e25-8a85-ccd6e4b1dbc1" points="85.74 288.5 7.1 288.26 285.1 3.14 364.1 3.01 85.74 288.5"/></g></g></svg>